<mxfile host="Electron" modified="2024-03-13T21:45:39.039Z" agent="Mozilla/5.0 (Windows NT 10.0; Win64; x64) AppleWebKit/537.36 (KHTML, like Gecko) draw.io/23.1.5 Chrome/120.0.6099.109 Electron/28.1.0 Safari/537.36" etag="u4OemPcgkeNWCc_5keuY" version="23.1.5" type="device">
  <diagram name="PÃ¡gina-1" id="Cq0yBIc0B5gl0TRwu44t">
    <mxGraphModel dx="600" dy="355" grid="1" gridSize="10" guides="1" tooltips="1" connect="1" arrows="1" fold="1" page="1" pageScale="1" pageWidth="827" pageHeight="1169" math="0" shadow="0">
      <root>
        <mxCell id="0" />
        <mxCell id="1" parent="0" />
        <mxCell id="K7nA-StYiK4t1AnsYZ6G-1" value="" style="rounded=1;whiteSpace=wrap;html=1;fillColor=#0066CC;strokeColor=#FFFFFF;container=0;movable=1;resizable=1;rotatable=1;deletable=1;editable=1;locked=0;connectable=1;" parent="1" vertex="1">
          <mxGeometry x="179" y="420" width="300" height="230" as="geometry" />
        </mxCell>
        <mxCell id="K7nA-StYiK4t1AnsYZ6G-2" value="&lt;font color=&quot;#0066cc&quot;&gt;&lt;b&gt;&lt;br&gt;&lt;/b&gt;&lt;/font&gt;" style="rounded=1;whiteSpace=wrap;html=1;container=0;movable=1;resizable=1;rotatable=1;deletable=1;editable=1;locked=0;connectable=1;" parent="1" vertex="1">
          <mxGeometry x="189" y="440.52" width="280" height="200" as="geometry" />
        </mxCell>
        <mxCell id="K7nA-StYiK4t1AnsYZ6G-3" value="" style="group" parent="1" vertex="1" connectable="0">
          <mxGeometry x="199" y="450.52" width="80" height="140" as="geometry" />
        </mxCell>
        <mxCell id="K7nA-StYiK4t1AnsYZ6G-4" value="&lt;font color=&quot;#0066cc&quot;&gt;&lt;b&gt;&lt;br&gt;&lt;/b&gt;&lt;/font&gt;" style="rounded=1;whiteSpace=wrap;html=1;strokeColor=#FFFFFF;fillColor=#0066CC;container=0;movable=1;resizable=1;rotatable=1;deletable=1;editable=1;locked=0;connectable=1;" parent="K7nA-StYiK4t1AnsYZ6G-3" vertex="1">
          <mxGeometry width="80" height="140" as="geometry" />
        </mxCell>
        <mxCell id="K7nA-StYiK4t1AnsYZ6G-5" value="&lt;font style=&quot;font-size: 14px;&quot;&gt;Pod&lt;/font&gt;" style="text;html=1;align=center;verticalAlign=middle;whiteSpace=wrap;rounded=0;fontStyle=1;fontColor=#FFFFFF;container=0;movable=1;resizable=1;rotatable=1;deletable=1;editable=1;locked=0;connectable=1;" parent="K7nA-StYiK4t1AnsYZ6G-3" vertex="1">
          <mxGeometry x="10" y="5" width="60" height="30" as="geometry" />
        </mxCell>
        <mxCell id="K7nA-StYiK4t1AnsYZ6G-6" value="" style="aspect=fixed;sketch=0;html=1;dashed=0;whitespace=wrap;fillColor=#2875E2;strokeColor=#ffffff;points=[[0.005,0.63,0],[0.1,0.2,0],[0.9,0.2,0],[0.5,0,0],[0.995,0.63,0],[0.72,0.99,0],[0.5,1,0],[0.28,0.99,0]];shape=mxgraph.kubernetes.icon2;kubernetesLabel=1;prIcon=pod;container=0;movable=1;resizable=1;rotatable=1;deletable=1;editable=1;locked=0;connectable=1;" parent="K7nA-StYiK4t1AnsYZ6G-3" vertex="1">
          <mxGeometry x="19.170000000000016" y="38" width="41.67" height="40" as="geometry" />
        </mxCell>
        <mxCell id="K7nA-StYiK4t1AnsYZ6G-7" value="" style="aspect=fixed;sketch=0;html=1;dashed=0;whitespace=wrap;fillColor=#2875E2;strokeColor=#ffffff;points=[[0.005,0.63,0],[0.1,0.2,0],[0.9,0.2,0],[0.5,0,0],[0.995,0.63,0],[0.72,0.99,0],[0.5,1,0],[0.28,0.99,0]];shape=mxgraph.kubernetes.icon2;kubernetesLabel=1;prIcon=pod;container=0;movable=1;resizable=1;rotatable=1;deletable=1;editable=1;locked=0;connectable=1;" parent="K7nA-StYiK4t1AnsYZ6G-3" vertex="1">
          <mxGeometry x="19.170000000000016" y="90" width="41.67" height="40" as="geometry" />
        </mxCell>
        <mxCell id="K7nA-StYiK4t1AnsYZ6G-8" style="edgeStyle=orthogonalEdgeStyle;rounded=0;orthogonalLoop=1;jettySize=auto;html=1;" parent="1" source="K7nA-StYiK4t1AnsYZ6G-10" target="K7nA-StYiK4t1AnsYZ6G-18" edge="1">
          <mxGeometry relative="1" as="geometry" />
        </mxCell>
        <mxCell id="K7nA-StYiK4t1AnsYZ6G-9" value="&lt;b&gt;API Gateway&lt;/b&gt;" style="edgeLabel;html=1;align=center;verticalAlign=middle;resizable=0;points=[];" parent="K7nA-StYiK4t1AnsYZ6G-8" vertex="1" connectable="0">
          <mxGeometry x="-0.5725" y="2" relative="1" as="geometry">
            <mxPoint x="-2" y="-8" as="offset" />
          </mxGeometry>
        </mxCell>
        <mxCell id="K7nA-StYiK4t1AnsYZ6G-10" value="" style="sketch=0;points=[[0,0,0],[0.25,0,0],[0.5,0,0],[0.75,0,0],[1,0,0],[0,1,0],[0.25,1,0],[0.5,1,0],[0.75,1,0],[1,1,0],[0,0.25,0],[0,0.5,0],[0,0.75,0],[1,0.25,0],[1,0.5,0],[1,0.75,0]];outlineConnect=0;fontColor=#232F3E;fillColor=#E7157B;strokeColor=#ffffff;dashed=0;verticalLabelPosition=bottom;verticalAlign=top;align=center;html=1;fontSize=12;fontStyle=0;aspect=fixed;shape=mxgraph.aws4.resourceIcon;resIcon=mxgraph.aws4.api_gateway;" parent="1" vertex="1">
          <mxGeometry x="291" y="149" width="78" height="78" as="geometry" />
        </mxCell>
        <mxCell id="K7nA-StYiK4t1AnsYZ6G-11" value="" style="group" parent="1" vertex="1" connectable="0">
          <mxGeometry x="290" y="450" width="80" height="140" as="geometry" />
        </mxCell>
        <mxCell id="K7nA-StYiK4t1AnsYZ6G-12" value="&lt;font color=&quot;#0066cc&quot;&gt;&lt;b&gt;&lt;br&gt;&lt;/b&gt;&lt;/font&gt;" style="rounded=1;whiteSpace=wrap;html=1;strokeColor=#FFFFFF;fillColor=#0066CC;container=0;movable=1;resizable=1;rotatable=1;deletable=1;editable=1;locked=0;connectable=1;" parent="K7nA-StYiK4t1AnsYZ6G-11" vertex="1">
          <mxGeometry width="80" height="140" as="geometry" />
        </mxCell>
        <mxCell id="K7nA-StYiK4t1AnsYZ6G-13" value="&lt;font style=&quot;font-size: 14px;&quot;&gt;Pod&lt;/font&gt;" style="text;html=1;align=center;verticalAlign=middle;whiteSpace=wrap;rounded=0;fontStyle=1;fontColor=#FFFFFF;container=0;movable=1;resizable=1;rotatable=1;deletable=1;editable=1;locked=0;connectable=1;" parent="K7nA-StYiK4t1AnsYZ6G-11" vertex="1">
          <mxGeometry x="10" y="5" width="60" height="30" as="geometry" />
        </mxCell>
        <mxCell id="K7nA-StYiK4t1AnsYZ6G-14" value="" style="aspect=fixed;sketch=0;html=1;dashed=0;whitespace=wrap;fillColor=#2875E2;strokeColor=#ffffff;points=[[0.005,0.63,0],[0.1,0.2,0],[0.9,0.2,0],[0.5,0,0],[0.995,0.63,0],[0.72,0.99,0],[0.5,1,0],[0.28,0.99,0]];shape=mxgraph.kubernetes.icon2;kubernetesLabel=1;prIcon=pod;container=0;movable=1;resizable=1;rotatable=1;deletable=1;editable=1;locked=0;connectable=1;" parent="K7nA-StYiK4t1AnsYZ6G-11" vertex="1">
          <mxGeometry x="19.170000000000016" y="38" width="41.67" height="40" as="geometry" />
        </mxCell>
        <mxCell id="K7nA-StYiK4t1AnsYZ6G-15" value="" style="aspect=fixed;sketch=0;html=1;dashed=0;whitespace=wrap;fillColor=#2875E2;strokeColor=#ffffff;points=[[0.005,0.63,0],[0.1,0.2,0],[0.9,0.2,0],[0.5,0,0],[0.995,0.63,0],[0.72,0.99,0],[0.5,1,0],[0.28,0.99,0]];shape=mxgraph.kubernetes.icon2;kubernetesLabel=1;prIcon=pod;container=0;movable=1;resizable=1;rotatable=1;deletable=1;editable=1;locked=0;connectable=1;" parent="K7nA-StYiK4t1AnsYZ6G-11" vertex="1">
          <mxGeometry x="19.170000000000016" y="90" width="41.67" height="40" as="geometry" />
        </mxCell>
        <mxCell id="K7nA-StYiK4t1AnsYZ6G-16" style="edgeStyle=orthogonalEdgeStyle;rounded=0;orthogonalLoop=1;jettySize=auto;html=1;entryX=0.5;entryY=0;entryDx=0;entryDy=0;" parent="1" source="K7nA-StYiK4t1AnsYZ6G-18" target="K7nA-StYiK4t1AnsYZ6G-13" edge="1">
          <mxGeometry relative="1" as="geometry" />
        </mxCell>
        <mxCell id="K7nA-StYiK4t1AnsYZ6G-17" style="edgeStyle=orthogonalEdgeStyle;rounded=0;orthogonalLoop=1;jettySize=auto;html=1;entryX=0.5;entryY=0;entryDx=0;entryDy=0;" parent="1" source="K7nA-StYiK4t1AnsYZ6G-18" target="K7nA-StYiK4t1AnsYZ6G-5" edge="1">
          <mxGeometry relative="1" as="geometry">
            <Array as="points">
              <mxPoint x="330" y="400" />
              <mxPoint x="239" y="400" />
            </Array>
          </mxGeometry>
        </mxCell>
        <mxCell id="K7nA-StYiK4t1AnsYZ6G-18" value="" style="outlineConnect=0;dashed=0;verticalLabelPosition=bottom;verticalAlign=top;align=center;html=1;shape=mxgraph.aws3.application_load_balancer;fillColor=#F58534;gradientColor=none;" parent="1" vertex="1">
          <mxGeometry x="295.5" y="300" width="69" height="72" as="geometry" />
        </mxCell>
        <mxCell id="K7nA-StYiK4t1AnsYZ6G-19" value="" style="image;sketch=0;aspect=fixed;html=1;points=[];align=center;fontSize=12;image=img/lib/mscae/Docker.svg;container=0;movable=1;resizable=1;rotatable=1;deletable=1;editable=1;locked=0;connectable=1;" parent="1" vertex="1">
          <mxGeometry x="400" y="594.52" width="50" height="41" as="geometry" />
        </mxCell>
        <mxCell id="K7nA-StYiK4t1AnsYZ6G-20" value="&lt;b style=&quot;border-color: var(--border-color); color: rgb(0, 0, 0); font-family: Helvetica; font-style: normal; font-variant-ligatures: normal; font-variant-caps: normal; letter-spacing: normal; orphans: 2; text-align: center; text-indent: 0px; text-transform: none; widows: 2; word-spacing: 0px; -webkit-text-stroke-width: 0px; text-decoration-thickness: initial; text-decoration-style: initial; text-decoration-color: initial;&quot;&gt;&lt;font style=&quot;border-color: var(--border-color); font-size: 18px;&quot;&gt;snack-shop-api&lt;/font&gt;&lt;/b&gt;" style="text;whiteSpace=wrap;html=1;movable=1;resizable=1;rotatable=1;deletable=1;editable=1;locked=0;connectable=1;" parent="1" vertex="1">
          <mxGeometry x="224.5" y="598.52" width="140" height="40" as="geometry" />
        </mxCell>
        <mxCell id="K7nA-StYiK4t1AnsYZ6G-21" value="" style="group" parent="1" vertex="1" connectable="0">
          <mxGeometry x="377" y="450" width="80" height="140" as="geometry" />
        </mxCell>
        <mxCell id="K7nA-StYiK4t1AnsYZ6G-22" value="&lt;font color=&quot;#0066cc&quot;&gt;&lt;b&gt;&lt;br&gt;&lt;/b&gt;&lt;/font&gt;" style="rounded=1;whiteSpace=wrap;html=1;strokeColor=#FFFFFF;fillColor=#0066CC;container=0;movable=1;resizable=1;rotatable=1;deletable=1;editable=1;locked=0;connectable=1;" parent="K7nA-StYiK4t1AnsYZ6G-21" vertex="1">
          <mxGeometry width="80" height="140" as="geometry" />
        </mxCell>
        <mxCell id="K7nA-StYiK4t1AnsYZ6G-23" value="&lt;font style=&quot;font-size: 14px;&quot;&gt;Pod&lt;/font&gt;" style="text;html=1;align=center;verticalAlign=middle;whiteSpace=wrap;rounded=0;fontStyle=1;fontColor=#FFFFFF;container=0;movable=1;resizable=1;rotatable=1;deletable=1;editable=1;locked=0;connectable=1;" parent="K7nA-StYiK4t1AnsYZ6G-21" vertex="1">
          <mxGeometry x="10" y="5" width="60" height="30" as="geometry" />
        </mxCell>
        <mxCell id="K7nA-StYiK4t1AnsYZ6G-24" value="" style="aspect=fixed;sketch=0;html=1;dashed=0;whitespace=wrap;fillColor=#2875E2;strokeColor=#ffffff;points=[[0.005,0.63,0],[0.1,0.2,0],[0.9,0.2,0],[0.5,0,0],[0.995,0.63,0],[0.72,0.99,0],[0.5,1,0],[0.28,0.99,0]];shape=mxgraph.kubernetes.icon2;kubernetesLabel=1;prIcon=pod;container=0;movable=1;resizable=1;rotatable=1;deletable=1;editable=1;locked=0;connectable=1;" parent="K7nA-StYiK4t1AnsYZ6G-21" vertex="1">
          <mxGeometry x="19.170000000000016" y="38" width="41.67" height="40" as="geometry" />
        </mxCell>
        <mxCell id="K7nA-StYiK4t1AnsYZ6G-25" value="" style="aspect=fixed;sketch=0;html=1;dashed=0;whitespace=wrap;fillColor=#2875E2;strokeColor=#ffffff;points=[[0.005,0.63,0],[0.1,0.2,0],[0.9,0.2,0],[0.5,0,0],[0.995,0.63,0],[0.72,0.99,0],[0.5,1,0],[0.28,0.99,0]];shape=mxgraph.kubernetes.icon2;kubernetesLabel=1;prIcon=pod;container=0;movable=1;resizable=1;rotatable=1;deletable=1;editable=1;locked=0;connectable=1;" parent="K7nA-StYiK4t1AnsYZ6G-21" vertex="1">
          <mxGeometry x="19.170000000000016" y="90" width="41.67" height="40" as="geometry" />
        </mxCell>
        <mxCell id="K7nA-StYiK4t1AnsYZ6G-26" value="" style="aspect=fixed;sketch=0;html=1;dashed=0;whitespace=wrap;fillColor=#2875E2;strokeColor=#ffffff;points=[[0.005,0.63,0],[0.1,0.2,0],[0.9,0.2,0],[0.5,0,0],[0.995,0.63,0],[0.72,0.99,0],[0.5,1,0],[0.28,0.99,0]];shape=mxgraph.kubernetes.icon2;prIcon=api" parent="1" vertex="1">
          <mxGeometry x="170" y="610" width="50" height="48" as="geometry" />
        </mxCell>
        <mxCell id="K7nA-StYiK4t1AnsYZ6G-27" style="edgeStyle=orthogonalEdgeStyle;rounded=0;orthogonalLoop=1;jettySize=auto;html=1;entryX=0.5;entryY=0;entryDx=0;entryDy=0;" parent="1" source="K7nA-StYiK4t1AnsYZ6G-18" target="K7nA-StYiK4t1AnsYZ6G-23" edge="1">
          <mxGeometry relative="1" as="geometry">
            <Array as="points">
              <mxPoint x="330" y="400" />
              <mxPoint x="417" y="400" />
            </Array>
          </mxGeometry>
        </mxCell>
        <mxCell id="K7nA-StYiK4t1AnsYZ6G-28" value="&lt;b&gt;Load Balancer&lt;/b&gt;" style="edgeLabel;html=1;align=center;verticalAlign=middle;resizable=0;points=[];" parent="K7nA-StYiK4t1AnsYZ6G-27" vertex="1" connectable="0">
          <mxGeometry x="-0.9204" y="-2" relative="1" as="geometry">
            <mxPoint x="1" y="-1" as="offset" />
          </mxGeometry>
        </mxCell>
        <mxCell id="K7nA-StYiK4t1AnsYZ6G-29" style="edgeStyle=orthogonalEdgeStyle;rounded=0;orthogonalLoop=1;jettySize=auto;html=1;" parent="1" source="K7nA-StYiK4t1AnsYZ6G-30" target="K7nA-StYiK4t1AnsYZ6G-10" edge="1">
          <mxGeometry relative="1" as="geometry" />
        </mxCell>
        <mxCell id="K7nA-StYiK4t1AnsYZ6G-30" value="" style="image;aspect=fixed;perimeter=ellipsePerimeter;html=1;align=center;shadow=0;dashed=0;spacingTop=3;image=img/lib/active_directory/mac_client.svg;" parent="1" vertex="1">
          <mxGeometry x="413.2" y="20" width="65.8" height="70" as="geometry" />
        </mxCell>
        <mxCell id="K7nA-StYiK4t1AnsYZ6G-31" style="edgeStyle=orthogonalEdgeStyle;rounded=0;orthogonalLoop=1;jettySize=auto;html=1;" parent="1" source="K7nA-StYiK4t1AnsYZ6G-33" target="K7nA-StYiK4t1AnsYZ6G-10" edge="1">
          <mxGeometry relative="1" as="geometry" />
        </mxCell>
        <mxCell id="K7nA-StYiK4t1AnsYZ6G-32" value="&lt;b&gt;/snack-shop:9000&lt;/b&gt;" style="edgeLabel;html=1;align=center;verticalAlign=middle;resizable=0;points=[];" parent="K7nA-StYiK4t1AnsYZ6G-31" vertex="1" connectable="0">
          <mxGeometry x="0.4667" y="2" relative="1" as="geometry">
            <mxPoint x="-3" y="-2" as="offset" />
          </mxGeometry>
        </mxCell>
        <mxCell id="K7nA-StYiK4t1AnsYZ6G-33" value="" style="aspect=fixed;sketch=0;html=1;dashed=0;whitespace=wrap;fillColor=#2875E2;strokeColor=#ffffff;points=[[0.005,0.63,0],[0.1,0.2,0],[0.9,0.2,0],[0.5,0,0],[0.995,0.63,0],[0.72,0.99,0],[0.5,1,0],[0.28,0.99,0]];shape=mxgraph.kubernetes.icon2;kubernetesLabel=1;prIcon=user" parent="1" vertex="1">
          <mxGeometry x="170" y="16" width="81.25" height="78" as="geometry" />
        </mxCell>
        <mxCell id="K7nA-StYiK4t1AnsYZ6G-34" value="&lt;b&gt;Vendedor&lt;/b&gt;" style="text;html=1;align=center;verticalAlign=middle;whiteSpace=wrap;rounded=0;" parent="1" vertex="1">
          <mxGeometry x="180.63" y="94" width="60" height="30" as="geometry" />
        </mxCell>
        <mxCell id="K7nA-StYiK4t1AnsYZ6G-35" value="&lt;b&gt;Totem&lt;/b&gt;" style="text;html=1;align=center;verticalAlign=middle;whiteSpace=wrap;rounded=0;" parent="1" vertex="1">
          <mxGeometry x="412.99999999999994" y="90" width="60" height="30" as="geometry" />
        </mxCell>
        <mxCell id="K7nA-StYiK4t1AnsYZ6G-36" value="" style="rounded=1;whiteSpace=wrap;html=1;fillColor=#0066CC;strokeColor=#FFFFFF;container=0;movable=1;resizable=1;rotatable=1;deletable=1;editable=1;locked=0;connectable=1;" parent="1" vertex="1">
          <mxGeometry x="179" y="720" width="300" height="230" as="geometry" />
        </mxCell>
        <mxCell id="K7nA-StYiK4t1AnsYZ6G-37" value="&lt;font color=&quot;#0066cc&quot;&gt;&lt;b&gt;&lt;br&gt;&lt;/b&gt;&lt;/font&gt;" style="rounded=1;whiteSpace=wrap;html=1;container=0;movable=1;resizable=1;rotatable=1;deletable=1;editable=1;locked=0;connectable=1;" parent="1" vertex="1">
          <mxGeometry x="189" y="740.52" width="280" height="200" as="geometry" />
        </mxCell>
        <mxCell id="K7nA-StYiK4t1AnsYZ6G-38" value="" style="image;sketch=0;aspect=fixed;html=1;points=[];align=center;fontSize=12;image=img/lib/mscae/Docker.svg;container=0;movable=1;resizable=1;rotatable=1;deletable=1;editable=1;locked=0;connectable=1;" parent="1" vertex="1">
          <mxGeometry x="400" y="894.52" width="50" height="41" as="geometry" />
        </mxCell>
        <mxCell id="K7nA-StYiK4t1AnsYZ6G-39" value="&lt;b style=&quot;border-color: var(--border-color); color: rgb(0, 0, 0); font-family: Helvetica; font-style: normal; font-variant-ligatures: normal; font-variant-caps: normal; letter-spacing: normal; orphans: 2; text-align: center; text-indent: 0px; text-transform: none; widows: 2; word-spacing: 0px; -webkit-text-stroke-width: 0px; text-decoration-thickness: initial; text-decoration-style: initial; text-decoration-color: initial;&quot;&gt;&lt;font style=&quot;border-color: var(--border-color); font-size: 18px;&quot;&gt;snack-shop-mysql&lt;/font&gt;&lt;/b&gt;" style="text;whiteSpace=wrap;html=1;movable=1;resizable=1;rotatable=1;deletable=1;editable=1;locked=0;connectable=1;" parent="1" vertex="1">
          <mxGeometry x="224.5" y="898.52" width="185.5" height="40" as="geometry" />
        </mxCell>
        <mxCell id="K7nA-StYiK4t1AnsYZ6G-40" value="" style="aspect=fixed;sketch=0;html=1;dashed=0;whitespace=wrap;fillColor=#2875E2;strokeColor=#ffffff;points=[[0.005,0.63,0],[0.1,0.2,0],[0.9,0.2,0],[0.5,0,0],[0.995,0.63,0],[0.72,0.99,0],[0.5,1,0],[0.28,0.99,0]];shape=mxgraph.kubernetes.icon2;prIcon=api" parent="1" vertex="1">
          <mxGeometry x="170" y="910" width="50" height="48" as="geometry" />
        </mxCell>
        <mxCell id="K7nA-StYiK4t1AnsYZ6G-41" value="&lt;font color=&quot;#0066cc&quot;&gt;&lt;b&gt;&lt;br&gt;&lt;/b&gt;&lt;/font&gt;" style="rounded=1;whiteSpace=wrap;html=1;strokeColor=#FFFFFF;fillColor=#0066CC;container=0;movable=1;resizable=1;rotatable=1;deletable=1;editable=1;locked=0;connectable=1;" parent="1" vertex="1">
          <mxGeometry x="199" y="750.52" width="80" height="140" as="geometry" />
        </mxCell>
        <mxCell id="K7nA-StYiK4t1AnsYZ6G-42" value="&lt;font style=&quot;font-size: 14px;&quot;&gt;Pod&lt;/font&gt;" style="text;html=1;align=center;verticalAlign=middle;whiteSpace=wrap;rounded=0;fontStyle=1;fontColor=#FFFFFF;container=0;movable=1;resizable=1;rotatable=1;deletable=1;editable=1;locked=0;connectable=1;" parent="1" vertex="1">
          <mxGeometry x="209" y="755.52" width="60" height="30" as="geometry" />
        </mxCell>
        <mxCell id="K7nA-StYiK4t1AnsYZ6G-43" value="" style="shape=cylinder3;whiteSpace=wrap;html=1;boundedLbl=1;backgroundOutline=1;size=15;strokeColor=#0066CC;" parent="1" vertex="1">
          <mxGeometry x="214" y="800" width="50" height="70" as="geometry" />
        </mxCell>
        <mxCell id="K7nA-StYiK4t1AnsYZ6G-44" value="&lt;font color=&quot;#0066cc&quot;&gt;&lt;b&gt;&lt;br&gt;&lt;/b&gt;&lt;/font&gt;" style="rounded=1;whiteSpace=wrap;html=1;strokeColor=#FFFFFF;fillColor=#0066CC;container=0;movable=1;resizable=1;rotatable=1;deletable=1;editable=1;locked=0;connectable=1;" parent="1" vertex="1">
          <mxGeometry x="289" y="750" width="80" height="140" as="geometry" />
        </mxCell>
        <mxCell id="K7nA-StYiK4t1AnsYZ6G-45" value="&lt;font style=&quot;font-size: 14px;&quot;&gt;Pod&lt;/font&gt;" style="text;html=1;align=center;verticalAlign=middle;whiteSpace=wrap;rounded=0;fontStyle=1;fontColor=#FFFFFF;container=0;movable=1;resizable=1;rotatable=1;deletable=1;editable=1;locked=0;connectable=1;" parent="1" vertex="1">
          <mxGeometry x="299" y="755" width="60" height="30" as="geometry" />
        </mxCell>
        <mxCell id="K7nA-StYiK4t1AnsYZ6G-46" value="" style="shape=cylinder3;whiteSpace=wrap;html=1;boundedLbl=1;backgroundOutline=1;size=15;strokeColor=#0066CC;" parent="1" vertex="1">
          <mxGeometry x="304" y="799.48" width="50" height="70" as="geometry" />
        </mxCell>
        <mxCell id="K7nA-StYiK4t1AnsYZ6G-47" value="&lt;font color=&quot;#0066cc&quot;&gt;&lt;b&gt;&lt;br&gt;&lt;/b&gt;&lt;/font&gt;" style="rounded=1;whiteSpace=wrap;html=1;strokeColor=#FFFFFF;fillColor=#0066CC;container=0;movable=1;resizable=1;rotatable=1;deletable=1;editable=1;locked=0;connectable=1;" parent="1" vertex="1">
          <mxGeometry x="380" y="750" width="80" height="140" as="geometry" />
        </mxCell>
        <mxCell id="K7nA-StYiK4t1AnsYZ6G-48" value="&lt;font style=&quot;font-size: 14px;&quot;&gt;Pod&lt;/font&gt;" style="text;html=1;align=center;verticalAlign=middle;whiteSpace=wrap;rounded=0;fontStyle=1;fontColor=#FFFFFF;container=0;movable=1;resizable=1;rotatable=1;deletable=1;editable=1;locked=0;connectable=1;" parent="1" vertex="1">
          <mxGeometry x="390" y="755" width="60" height="30" as="geometry" />
        </mxCell>
        <mxCell id="K7nA-StYiK4t1AnsYZ6G-49" value="" style="shape=cylinder3;whiteSpace=wrap;html=1;boundedLbl=1;backgroundOutline=1;size=15;strokeColor=#0066CC;" parent="1" vertex="1">
          <mxGeometry x="395" y="799.48" width="50" height="70" as="geometry" />
        </mxCell>
        <mxCell id="K7nA-StYiK4t1AnsYZ6G-50" value="" style="endArrow=classic;startArrow=classic;html=1;rounded=0;" parent="1" edge="1">
          <mxGeometry width="50" height="50" relative="1" as="geometry">
            <mxPoint x="238.66" y="706" as="sourcePoint" />
            <mxPoint x="238.66" y="658" as="targetPoint" />
          </mxGeometry>
        </mxCell>
        <mxCell id="K7nA-StYiK4t1AnsYZ6G-51" value="" style="endArrow=classic;startArrow=classic;html=1;rounded=0;" parent="1" edge="1">
          <mxGeometry width="50" height="50" relative="1" as="geometry">
            <mxPoint x="329.65999999999997" y="706" as="sourcePoint" />
            <mxPoint x="329.65999999999997" y="658" as="targetPoint" />
          </mxGeometry>
        </mxCell>
        <mxCell id="K7nA-StYiK4t1AnsYZ6G-52" value="" style="endArrow=classic;startArrow=classic;html=1;rounded=0;" parent="1" edge="1">
          <mxGeometry width="50" height="50" relative="1" as="geometry">
            <mxPoint x="416.65999999999997" y="706" as="sourcePoint" />
            <mxPoint x="416.65999999999997" y="658" as="targetPoint" />
          </mxGeometry>
        </mxCell>
      </root>
    </mxGraphModel>
  </diagram>
</mxfile>
